<svg xmlns="http://www.w3.org/2000/svg" fill="#000000" version="1.1" id="Capa_1" width="100%" height="100%" viewBox="0 0 45.174 45.174" xml:space="preserve" xmlns:xml="http://www.w3.org/XML/1998/namespace" preserveAspectRatio="xMidYMid">
  <g>
    <path d="M41.573,15.879v-1.675c0-1.922-1.558-3.495-3.479-3.495h-2.761c-1.921,0-3.479,1.573-3.479,3.495v4.693H13.319v-4.693   c0-1.922-1.558-3.495-3.479-3.495H7.079c-1.921,0-3.479,1.573-3.479,3.495v1.675c-1.979,0-3.6,1.617-3.6,3.613v6.172   c0,1.996,1.71,3.613,3.6,3.613v1.674c0,1.922,1.558,3.513,3.479,3.513H9.84c1.921,0,3.479-1.591,3.479-3.513v-4.676h18.536v4.676   c0,1.922,1.558,3.513,3.479,3.513h2.762c1.92,0,3.479-1.591,3.479-3.513v-1.674c1.979,0,3.6-1.619,3.6-3.613v-6.172   C45.172,17.496,43.462,15.879,41.573,15.879z"/>
  </g>
</svg>
